<svg width="32" height="32" viewBox="0 0 32 32" fill="none" xmlns="http://www.w3.org/2000/svg">
<path d="M27 20.8333C27 25.8959 22.9546 30 17.9643 30C12.974 30 8.92857 25.8959 8.92857 20.8333C8.92857 15.7707 12.974 11.6667 17.9643 11.6667C22.9546 11.6667 27 15.7707 27 20.8333Z" fill="#D20E0E"/>
<path d="M18.7857 13.1667C18.7857 17.3088 15.4758 20.6667 11.3929 20.6667C7.30989 20.6667 4 17.3088 4 13.1667C4 9.02453 7.30989 5.66667 11.3929 5.66667C15.4758 5.66667 18.7857 9.02453 18.7857 13.1667Z" fill="#FBD96A"/>
<path d="M16.8143 6.16667C16.8143 8.46785 14.9755 10.3333 12.7071 10.3333C10.4388 10.3333 8.6 8.46785 8.6 6.16667C8.6 3.86548 10.4388 2 12.7071 2C14.9755 2 16.8143 3.86548 16.8143 6.16667Z" fill="#0072B6"/>
</svg>
