<?xml version="1.0" standalone="no"?>
<!DOCTYPE svg PUBLIC "-//W3C//DTD SVG 20010904//EN"
 "http://www.w3.org/TR/2001/REC-SVG-20010904/DTD/svg10.dtd">
<svg version="1.0" xmlns="http://www.w3.org/2000/svg"
 width="700.000000pt" height="700.000000pt" viewBox="0 0 700.000000 700.000000"
 preserveAspectRatio="xMidYMid meet">
<metadata>
Created by potrace 1.11, written by Peter Selinger 2001-2013
</metadata>
<g transform="translate(0.000000,700.000000) scale(0.100000,-0.100000)"
fill="#000000" stroke="none">
<path d="M622 463.22C622 581.288 526.317 677 408.286 677C290.255 677 194.571 581.288 194.571 463.22C194.571 345.153 290.255 249.44 408.286 249.44C526.317 249.44 622 345.153 622 463.22Z" fill="black"/>
<path d="M427.714 284.423C427.714 381.023 349.428 459.333 252.857 459.333C156.286 459.333 78 381.023 78 284.423C78 187.822 156.286 109.512 252.857 109.512C349.428 109.512 427.714 187.822 427.714 284.423Z" fill="black"/>
<path d="M381.086 121.173C381.086 174.84 337.593 218.345 283.943 218.345C230.292 218.345 186.8 174.84 186.8 121.173C186.8 67.5057 230.292 24 283.943 24C337.593 24 381.086 67.5057 381.086 121.173Z" fill="black"/>
</g>
</svg>

