<svg width="23" height="23" viewBox="0 0 23 23" fill="none" xmlns="http://www.w3.org/2000/svg">
<path d="M8.68294 0.278026C7.14164 0.663351 6.73223 1.02459 5.76892 2.80672C4.66111 4.926 3.8423 8.61067 4.51662 8.61067C5.02235 8.61067 8.94785 7.38245 10.2002 6.80446C13.0901 5.55216 16.1004 2.75855 16.1004 1.38583C16.1004 0.39844 11.1394 -0.348126 8.68294 0.278026Z" fill="#EEEEEF" fill-opacity="0.87"/>
<path d="M5.47998 1.57841C3.96276 2.5658 2.83087 3.64953 2.01206 4.90183C1.16916 6.17822 0.0613514 8.80324 0.278096 9.01999C0.350345 9.06815 0.928331 9.04407 1.57857 8.94774L2.75862 8.80324L3.04762 7.40644C3.43294 5.60023 4.03501 4.2516 5.23915 2.51764C5.76897 1.77107 6.17838 1.14492 6.15429 1.169C6.13021 1.169 5.81713 1.36166 5.47998 1.57841Z" fill="#EEEEEF" fill-opacity="0.87"/>
<path d="M17.6899 2.73451C17.5936 3.09575 16.8952 4.01089 16.1245 4.75746C13.933 6.94899 9.79077 8.77928 5.79303 9.28502L4.42031 9.47768L4.46848 10.7059C4.49256 11.4043 4.68522 12.3195 4.87789 12.8011C5.21504 13.5958 5.26321 13.6199 6.27469 13.4995C9.38136 13.1383 13.6199 11.4525 15.956 9.64626C17.6658 8.32171 18.9904 6.63592 19.4961 5.19095C19.9778 3.77006 19.8815 3.5774 18.4847 2.56593L17.8344 2.10835L17.6899 2.73451Z" fill="#EEEEEF" fill-opacity="0.87"/>
<path d="M20.7003 6.97301C20.2186 8.08082 17.4732 10.7299 15.8115 11.7173C13.7885 12.8974 10.7541 13.8607 7.96051 14.1978L5.50406 14.5109L6.13022 15.4742C6.49146 16.0041 7.11761 16.7988 7.52702 17.2323C8.2495 18.0029 8.32175 18.027 9.59814 17.8825C11.1394 17.6898 13.9571 16.7988 15.5707 15.98C20.2668 13.5958 23.0845 8.99597 21.3264 6.61177C21.0615 6.22645 21.0134 6.27461 20.7003 6.97301Z" fill="#EEEEEF" fill-opacity="0.87"/>
<path d="M0.0613243 10.2483C-0.0350068 10.6818 -0.010924 11.621 0.0854071 12.3435L0.229904 13.6681H3.3125L3.07167 12.8974C2.95126 12.4639 2.85493 11.5488 2.85493 10.8504V9.62215L1.53037 9.52582L0.205821 9.45357L0.0613243 10.2483Z" fill="#EEEEEF" fill-opacity="0.87"/>
<path d="M22.0971 12.6083C21.495 13.7402 18.9904 15.7873 16.9674 16.7747C14.8481 17.8102 12.9697 18.3641 10.6096 18.629L9.06828 18.7976L10.152 19.496C11.5006 20.363 13.6922 21.1337 15.2576 21.3022C16.3894 21.4226 16.558 21.3745 17.9307 20.363C20.2427 18.6531 21.7117 16.3171 22.3379 13.4512C22.651 11.9581 22.5787 11.7173 22.0971 12.6083Z" fill="#EEEEEF" fill-opacity="0.87"/>
<path d="M0.446702 14.4868C0.446702 14.7517 1.2896 16.5098 1.79534 17.3045L2.37332 18.2437H6.03391L5.38367 17.4972C5.04651 17.0637 4.49261 16.1967 4.15545 15.5705L3.57746 14.3905H2.01208C1.1451 14.3905 0.446702 14.4387 0.446702 14.4868Z" fill="#EEEEEF" fill-opacity="0.87"/>
<path d="M3.81824 19.7128C5.6967 21.3745 8.82746 22.5786 11.2839 22.5786C11.7896 22.5786 12.8011 22.4582 13.4995 22.2896L14.7759 22.0007L13.2587 21.808C11.3562 21.5431 9.21278 20.7002 7.6474 19.5683C6.5396 18.7736 6.37102 18.7254 4.58889 18.7254L2.73452 18.7495L3.81824 19.7128Z" fill="#EEEEEF" fill-opacity="0.87"/>
</svg>
