<svg width="112" height="17" viewBox="0 0 112 17" fill="none" xmlns="http://www.w3.org/2000/svg">
<path d="M3.32985 0.215326V15.9648H0V0.215326H3.32985Z" fill="#273141" fill-opacity="0.87"/>
<path d="M19.9657 5.7292H16.5974C16.5358 5.29342 16.4102 4.90634 16.2205 4.56798C16.0309 4.22448 15.7873 3.93225 15.49 3.69129C15.1926 3.45033 14.8491 3.26577 14.4595 3.1376C14.075 3.00943 13.6571 2.94535 13.206 2.94535C12.3908 2.94535 11.6808 3.14785 11.0758 3.55287C10.4708 3.95276 10.0017 4.53722 9.6685 5.30623C9.33526 6.07013 9.16863 6.99808 9.16863 8.09009C9.16863 9.21285 9.33526 10.1562 9.6685 10.9201C10.0069 11.684 10.4785 12.2607 11.0835 12.6504C11.6885 13.04 12.3883 13.2348 13.1829 13.2348C13.6289 13.2348 14.0417 13.1759 14.421 13.058C14.8055 12.94 15.1465 12.7683 15.4438 12.5427C15.7412 12.312 15.9873 12.0326 16.1821 11.7045C16.382 11.3764 16.5205 11.0021 16.5974 10.5817L19.9657 10.5971C19.8785 11.32 19.6606 12.0172 19.312 12.6888C18.9685 13.3553 18.5045 13.9526 17.9201 14.4806C17.3407 15.0036 16.6486 15.4188 15.8437 15.7264C15.0439 16.0289 14.1391 16.1802 13.1291 16.1802C11.7243 16.1802 10.4683 15.8623 9.36089 15.2266C8.25863 14.5909 7.38707 13.6706 6.74622 12.4658C6.1105 11.261 5.79264 9.80244 5.79264 8.09009C5.79264 6.37261 6.11563 4.91147 6.7616 3.70667C7.40758 2.50188 8.28426 1.58418 9.39165 0.953585C10.499 0.317862 11.7448 0 13.1291 0C14.0417 0 14.8876 0.12817 15.6668 0.38451C16.4512 0.64085 17.1459 1.01511 17.7509 1.50728C18.3559 1.99432 18.848 2.5916 19.2274 3.29909C19.6119 4.00659 19.858 4.81663 19.9657 5.7292Z" fill="#273141" fill-opacity="0.87"/>
<path d="M25.6833 0.215326V15.9648H22.3535V0.215326H25.6833Z" fill="#273141" fill-opacity="0.87"/>
<path d="M28.423 15.9648V0.215326H31.7528V13.2194H38.5048V15.9648H28.423Z" fill="#273141" fill-opacity="0.87"/>
<path d="M49.2538 4.74485C49.1923 4.12451 48.9282 3.64259 48.4617 3.29909C47.9951 2.9556 47.362 2.78385 46.5622 2.78385C46.0188 2.78385 45.5599 2.86075 45.1857 3.01456C44.8114 3.16323 44.5243 3.37087 44.3244 3.63746C44.1295 3.90406 44.0321 4.20654 44.0321 4.54491C44.0219 4.82688 44.0808 5.07297 44.209 5.28316C44.3423 5.49336 44.5243 5.67536 44.755 5.82917C44.9857 5.97784 45.2523 6.10858 45.5548 6.22137C45.8573 6.32903 46.1803 6.42131 46.5238 6.49821L47.9387 6.83658C48.6257 6.99039 49.2563 7.19546 49.8305 7.4518C50.4047 7.70814 50.902 8.02344 51.3224 8.39769C51.7428 8.77195 52.0684 9.21285 52.2991 9.72041C52.5349 10.228 52.6554 10.8099 52.6605 11.4661C52.6554 12.4299 52.4093 13.2656 51.9223 13.9731C51.4404 14.6755 50.7431 15.2215 49.8305 15.6111C48.9231 15.9956 47.8285 16.1879 46.5468 16.1879C45.2754 16.1879 44.168 15.993 43.2247 15.6034C42.2865 15.2138 41.5533 14.637 41.0253 13.8731C40.5023 13.1041 40.228 12.1531 40.2024 11.02H43.4246C43.4605 11.5481 43.6117 11.989 43.8783 12.3428C44.15 12.6914 44.5115 12.9554 44.9626 13.1349C45.4189 13.3092 45.9342 13.3963 46.5084 13.3963C47.0723 13.3963 47.5619 13.3143 47.9772 13.1502C48.3976 12.9862 48.7231 12.758 48.9539 12.4658C49.1846 12.1736 49.2999 11.8378 49.2999 11.4584C49.2999 11.1046 49.1948 10.8073 48.9846 10.5663C48.7795 10.3254 48.4771 10.1203 48.0772 9.95111C47.6824 9.78193 47.1979 9.62812 46.6237 9.4897L44.9088 9.05905C43.581 8.73606 42.5325 8.23107 41.7635 7.54408C40.9945 6.85709 40.6126 5.9317 40.6177 4.76792C40.6126 3.81434 40.8663 2.98123 41.379 2.26861C41.8968 1.55598 42.6069 0.999726 43.5092 0.599835C44.4115 0.199945 45.4369 0 46.5853 0C47.7542 0 48.7744 0.199945 49.646 0.599835C50.5227 0.999726 51.2045 1.55598 51.6916 2.26861C52.1786 2.98123 52.4298 3.80665 52.4452 4.74485H49.2538Z" fill="#273141" fill-opacity="0.87"/>
<path d="M59.8201 15.9648V13.5655L65.4263 8.37462C65.903 7.91321 66.3029 7.49794 66.6259 7.12881C66.954 6.75968 67.2027 6.39824 67.3719 6.04449C67.5411 5.68562 67.6256 5.29854 67.6256 4.88327C67.6256 4.42186 67.5205 4.02454 67.3103 3.69129C67.1002 3.35293 66.8131 3.09402 66.449 2.91458C66.085 2.73002 65.6723 2.63774 65.2109 2.63774C64.729 2.63774 64.3086 2.73515 63.9497 2.92996C63.5909 3.12478 63.314 3.40419 63.1192 3.7682C62.9244 4.1322 62.827 4.56541 62.827 5.06784H59.6663C59.6663 4.03735 59.8996 3.14273 60.3661 2.38396C60.8326 1.6252 61.4863 1.03818 62.3271 0.622905C63.1679 0.207635 64.1369 0 65.234 0C66.3619 0 67.3437 0.199945 68.1793 0.599835C69.0201 0.994599 69.6738 1.54317 70.1403 2.24554C70.6069 2.94791 70.8402 3.75282 70.8402 4.66026C70.8402 5.25497 70.7222 5.84198 70.4864 6.42131C70.2557 7.00064 69.843 7.64405 69.2483 8.35155C68.6536 9.05392 67.8153 9.89728 66.7336 10.8816L64.4342 13.1349V13.2425H71.0478V15.9648H59.8201Z" fill="#273141" fill-opacity="0.87"/>
<path d="M79.6358 16.3109C78.3131 16.3058 77.1749 15.9802 76.2214 15.3342C75.2729 14.6883 74.5423 13.7526 74.0297 12.5273C73.5221 11.302 73.2709 9.82807 73.276 8.10547C73.276 6.38799 73.5298 4.92429 74.0374 3.71436C74.55 2.50444 75.2806 1.58418 76.2291 0.953585C77.1826 0.317862 78.3182 0 79.6358 0C80.9534 0 82.0864 0.317862 83.0349 0.953585C83.9885 1.58931 84.7216 2.51213 85.2343 3.72205C85.747 4.92685 86.0007 6.38799 85.9956 8.10547C85.9956 9.8332 85.7393 11.3097 85.2266 12.535C84.719 13.7603 83.991 14.696 83.0426 15.3419C82.0941 15.9879 80.9585 16.3109 79.6358 16.3109ZM79.6358 13.5501C80.5381 13.5501 81.2584 13.0964 81.7968 12.189C82.3351 11.2815 82.6017 9.92035 82.5965 8.10547C82.5965 6.91092 82.4735 5.91632 82.2274 5.12167C81.9864 4.32702 81.643 3.72974 81.1969 3.32985C80.756 2.92996 80.2356 2.73002 79.6358 2.73002C78.7386 2.73002 78.0209 3.17861 77.4826 4.0758C76.9442 4.97299 76.6725 6.31621 76.6674 8.10547C76.6674 9.31539 76.7879 10.3254 77.0288 11.1354C77.2749 11.9403 77.621 12.5453 78.067 12.9503C78.513 13.3502 79.036 13.5501 79.6358 13.5501Z" fill="#273141" fill-opacity="0.87"/>
<path d="M88.5699 15.9648L95.0989 3.04532V2.93765H87.4933V0.215326H98.5441V2.97611L92.0074 15.9648H88.5699Z" fill="#273141" fill-opacity="0.87"/>
<path d="M101.872 15.9648L108.401 3.04532V2.93765H100.795V0.215326H111.846V2.97611L105.31 15.9648H101.872Z" fill="#273141" fill-opacity="0.87"/>
</svg>
